<?xml version="1.0" encoding="utf-8"?>
<!-- Generator: Adobe Illustrator 20.1.0, SVG Export Plug-In . SVG Version: 6.00 Build 0)  -->
<!DOCTYPE svg PUBLIC "-//W3C//DTD SVG 1.1 Basic//EN" "http://www.w3.org/Graphics/SVG/1.1/DTD/svg11-basic.dtd">
<svg version="1.1" baseProfile="basic" id="Layer_1"
	 xmlns="http://www.w3.org/2000/svg" xmlns:xlink="http://www.w3.org/1999/xlink" x="0px" y="0px" width="170.9px" height="170.9px"
	 viewBox="0 0 170.9 170.9" xml:space="preserve">
<path d="M85.4,10c41.6,0,75.4,33.8,75.4,75.4s-33.8,75.4-75.4,75.4S10,127,10,85.4S43.8,10,85.4,10 M85.4,0C38.3,0,0,38.3,0,85.4
	s38.3,85.4,85.4,85.4s85.4-38.3,85.4-85.4S132.6,0,85.4,0L85.4,0z"/>
<path d="M85.4,40.8c24.6,0,44.7,20,44.7,44.7s-20,44.7-44.7,44.7s-44.7-20-44.7-44.7S60.8,40.8,85.4,40.8 M85.4,30.8
	c-30.2,0-54.7,24.5-54.7,54.7s24.5,54.7,54.7,54.7s54.7-24.5,54.7-54.7S115.6,30.8,85.4,30.8L85.4,30.8z"/>
<circle cx="85.4" cy="85.4" r="8.9"/>
</svg>
